<?xml version="1.0" encoding="UTF-8"?>
<svg width="1024" height="1024" viewBox="0 0 1024 1024" fill="none" xmlns="http://www.w3.org/2000/svg">
  <defs>
    <linearGradient id="bg" x1="148" y1="120" x2="896" y2="916" gradientUnits="userSpaceOnUse">
      <stop offset="0%" stop-color="#08111f" />
      <stop offset="58%" stop-color="#0f2d59" />
      <stop offset="100%" stop-color="#1d4ed8" />
    </linearGradient>
    <radialGradient id="glowPrimary" cx="0" cy="0" r="1" gradientUnits="userSpaceOnUse" gradientTransform="translate(280 240) rotate(47.8) scale(484.673 392.725)">
      <stop stop-color="#38BDF8" stop-opacity="0.34" />
      <stop offset="1" stop-color="#38BDF8" stop-opacity="0" />
    </radialGradient>
    <radialGradient id="glowSecondary" cx="0" cy="0" r="1" gradientUnits="userSpaceOnUse" gradientTransform="translate(794 816) rotate(180) scale(384 312)">
      <stop stop-color="#7DD3FC" stop-opacity="0.24" />
      <stop offset="1" stop-color="#7DD3FC" stop-opacity="0" />
    </radialGradient>
    <filter id="shadow" x="38" y="46" width="948" height="948" filterUnits="userSpaceOnUse" color-interpolation-filters="sRGB">
      <feFlood flood-opacity="0" result="BackgroundImageFix" />
      <feColorMatrix in="SourceAlpha" type="matrix" values="0 0 0 0 0 0 0 0 0 0 0 0 0 0 0 0 0 0 127 0" result="hardAlpha" />
      <feOffset dy="20" />
      <feGaussianBlur stdDeviation="34" />
      <feComposite in2="hardAlpha" operator="out" />
      <feColorMatrix type="matrix" values="0 0 0 0 0.00784314 0 0 0 0 0.0941176 0 0 0 0 0.266667 0 0 0 0.38 0" />
      <feBlend mode="normal" in2="BackgroundImageFix" result="effect1_dropShadow_0_1" />
      <feBlend mode="normal" in="SourceGraphic" in2="effect1_dropShadow_0_1" result="shape" />
    </filter>
  </defs>

  <g filter="url(#shadow)">
    <rect x="92" y="72" width="840" height="840" rx="220" fill="url(#bg)" />
    <rect x="92.5" y="72.5" width="839" height="839" rx="219.5" stroke="#E2E8F0" stroke-opacity="0.18" />
  </g>

  <circle cx="292" cy="230" r="220" fill="url(#glowPrimary)" />
  <circle cx="798" cy="812" r="174" fill="url(#glowSecondary)" />

  <path
    d="M726 790c0 14.359-11.641 26-26 26H324c-14.359 0-26-11.641-26-26s11.641-26 26-26h376c14.359 0 26 11.641 26 26Z"
    fill="#E2E8F0"
    fill-opacity="0.14"
  />
  <path
    d="M648 790c0 14.359-11.641 26-26 26H324c-14.359 0-26-11.641-26-26s11.641-26 26-26h298c14.359 0 26 11.641 26 26Z"
    fill="#38BDF8"
  />

  <g transform="translate(232 214) scale(23.3333333333)" fill="#F8FAFC">
    <svg viewBox="0 0 24 24" width="24" height="24" fill="none" xmlns="http://www.w3.org/2000/svg">
      <g fill="#F8FAFC">
        <path d="M18 4l1.82 3.64c.08.16-.04.36-.22.36h-1.98c-.38 0-.73-.21-.89-.55L15 4h-2l1.82 3.64c.08.16-.04.36-.22.36h-1.98c-.38 0-.73-.21-.89-.55L10 4H8l1.82 3.64c.08.16-.04.36-.22.36H7.62c-.38 0-.73-.21-.9-.55L5 4H4c-1.1 0-2 .9-2 2v12c0 1.1.9 2 2 2h16c1.1 0 2-.9 2-2V5c0-.55-.45-1-1-1h-3z"/>
      </g>
    </svg>
  </g>
</svg>
